<svg id="Layer_1" data-name="Layer 1" xmlns="http://www.w3.org/2000/svg" xmlns:xlink="http://www.w3.org/1999/xlink" viewBox="0 0 60.68 49.62"><defs><style>.cls-1,.cls-7{fill:#73226d;}.cls-2{fill:url(#linear-gradient);}.cls-3{fill:#f47af5;}.cls-4{fill:url(#linear-gradient-2);}.cls-5{fill:url(#linear-gradient-3);}.cls-6{fill:url(#linear-gradient-4);}.cls-7{stroke:#000;stroke-miterlimit:10;}</style><linearGradient id="linear-gradient" x1="10.7" y1="54.93" x2="23.25" y2="54.93" gradientUnits="userSpaceOnUse"><stop offset="0.06" stop-color="#75256f"/><stop offset="0.19" stop-color="#73226d"/><stop offset="0.67" stop-color="#f47af5"/><stop offset="1" stop-color="#a672a2"/><stop offset="1" stop-color="#fff"/></linearGradient><linearGradient id="linear-gradient-2" x1="33.69" y1="56.81" x2="46.25" y2="56.81" xlink:href="#linear-gradient"/><linearGradient id="linear-gradient-3" x1="46.25" y1="56.81" x2="58.81" y2="56.81" xlink:href="#linear-gradient"/><linearGradient id="linear-gradient-4" x1="58.82" y1="56.81" x2="71.37" y2="56.81" xlink:href="#linear-gradient"/></defs><rect class="cls-1" x="10.93" width="48.4" height="6.63"/><path class="cls-2" d="M17,48.66a6.28,6.28,0,1,0,6.27,6.27A6.28,6.28,0,0,0,17,48.66Zm.49,1.56a2.91,2.91,0,0,1,3.41,2.25C21.07,53.92,15.77,50.44,17.47,50.22Z" transform="translate(-10.7 -13.46)"/><path class="cls-3" d="M27.6,20q-4.74,14.33-9.49,28.66l1.35.36L29,20Z" transform="translate(-10.7 -13.46)"/><path class="cls-4" d="M40,50.53a6.28,6.28,0,1,0,6.28,6.28A6.28,6.28,0,0,0,40,50.53Zm.49,1.56a2.91,2.91,0,0,1,3.42,2.25C44.07,55.8,38.77,52.31,40.46,52.09Z" transform="translate(-10.7 -13.46)"/><path class="cls-5" d="M52.53,50.53a6.28,6.28,0,1,0,6.28,6.28A6.28,6.28,0,0,0,52.53,50.53Zm.5,1.56a2.91,2.91,0,0,1,3.41,2.25C56.63,55.8,51.33,52.31,53,52.09Z" transform="translate(-10.7 -13.46)"/><path class="cls-6" d="M65.1,50.53a6.28,6.28,0,1,0,6.27,6.28A6.28,6.28,0,0,0,65.1,50.53Zm.49,1.56A2.91,2.91,0,0,1,69,54.34C69.19,55.8,63.89,52.31,65.59,52.09Z" transform="translate(-10.7 -13.46)"/><rect class="cls-3" x="28.66" y="6.63" width="1.24" height="30.43"/><rect class="cls-3" x="41.22" y="6.63" width="1.24" height="30.43"/><rect class="cls-3" x="53.78" y="6.63" width="1.24" height="30.43"/><path class="cls-7" d="M21.62,47.88" transform="translate(-10.7 -13.46)"/></svg>